<?xml version="1.0" encoding="UTF-8"?><?xml version="1.0" encoding="UTF-8"?>

<svg xmlns="http://www.w3.org/2000/svg" viewBox="0 0 24 24" fill="none" stroke="currentColor" stroke-width="2" stroke-linecap="round" stroke-linejoin="round"><svg width="24" height="24" viewBox="0 0 24 24" fill="none" xmlns="http://www.w3.org/2000/svg">

  <path d="M1 12s4-7 11-7 11 7 11 7-4 7-11 7S1 12 1 12z"/>  <path d="M17.94 17.94A10.94 10.94 0 0 1 12 19c-7 0-11-7-11-7a21.8 21.8 0 0 1 5.06-5.94M9.9 4.24A10.9 10.9 0 0 1 12 4c7 0 11 7 11 7a21.8 21.8 0 0 1-5.06 5.94M1 1l22 22" stroke="#111827" stroke-width="2" stroke-linecap="round"/>

  <circle cx="12" cy="12" r="3"/></svg>

  <line x1="2" y1="2" x2="22" y2="22"/>
</svg>
